<svg xmlns="http://www.w3.org/2000/svg" width="37.218" height="37.218" viewBox="0 0 37.218 37.218">
    <defs>
        <style>
            .a,.c{
                fill: #fff;
            }
        </style>
    </defs>
    <g transform="translate(-23.971 -13.725)">
        <g transform="translate(-28.449 -58.12)">
            <g transform="translate(52.42 71.845)">
                <g transform="translate(0 0)">
                    <path class="c" d="M18.608499244689938,37.21699877929687 a18.608,18.608 0 1 1 0,-37.218 h0 a18.608,18.608 0 1 1 0,37.218 zm0,-36.733 v0.4830000000000003 a17.642,17.642 0 1 0 0,35.285 h0 a17.642,17.642 0 1 0 0,-35.285 zm-9.559,31.42 a0.4720000000000003,0.4720000000000003 0 0 1 -0.2,-0.04500000000000007 a0.4830000000000003,0.4830000000000003 0 0 1 -0.28,-0.44100000000000034 L8.679499244689943,12.495998779296869 a4.566,4.566 0 0 1 4.555,-4.519 h0.01400000000000001 l11.372,0.035 a4.571,4.571 0 0 1 4.521,4.571 l-0.0680000000000001,11.383000000000001 h0 a4.5600000000000005,4.5600000000000005 0 0 1 -4.55,4.508 h-0.01900000000000002 l-11.2,-0.06400000000000008 l-3.948,3.365 A0.4830000000000003,0.4830000000000003 0 0 1 9.04949924468994,31.90399877929687 zm4.186,-22.961 a3.6,3.6 0 0 0 -3.589,3.56 l-0.10600000000000002,17.871 l3.281,-2.8 a0.4830000000000003,0.4830000000000003 0 0 1 0.31400000000000033,-0.11600000000000012 h0 l11.375,0.06600000000000009 h0.01400000000000001 A3.592,3.592 0 0 0 28.107499244689947,23.954998779296872 l0.06400000000000008,-11.386 a3.6,3.6 0 0 0 -3.56,-3.6 l-11.37,-0.035 zm15.355,15.02 z"/>
                </g>
                <g transform="translate(11.964 0.484)">
                    <path class="c" d="M133.375,74.85a18.292,18.292,0,0,0-4.1.483,18.1,18.1,0,0,0-2.547,7.675,3.9,3.9,0,0,1,1.288-.2l11.386.055a4.073,4.073,0,0,1,4.025,4.09l-.072,11.367a4.069,4.069,0,0,1-3.059,3.908,17.983,17.983,0,0,0,8.585.081A18.09,18.09,0,0,0,133.375,74.85Z" transform="translate(-126.73 -74.85)"/>
                </g>
            </g>
        </g>
    </g>
</svg>